# xmcd
#
# Track frame offsets: 
#        150
#        19233
#        41036
#        52260
#        73259
#        95562
#        124611
#        142211
#        161061
#        190891
#        209776
#        226988
#        250713
#        274701
#
# Disc length: 3903 seconds
#
# Revision: 2
# Processed by: cddbd v1.5.2PL0 Copyright (c) Steve Scherf et al.
# Submitted via: ExactAudioCopy v1.0b1
#
DISCID=dd0f3d0e
DTITLE=Groundhogs - Thank Christ for the Groundhogs CD 1
DYEAR=2010
DGENRE=Blues-Rock
TTITLE0=Rocking Chair
TTITLE1=Early In The Morning
TTITLE2=Waking Blues
TTITLE3=Married Men
TTITLE4=No More Doggin'
TTITLE5=Man Trouble
TTITLE6=Come Back Baby
TTITLE7=You Don't Love Me
TTITLE8=Still A Fool
TTITLE9=Still A Fool (Single Edit)
TTITLE10=B.D.D.
TTITLE11=Daze Of The Weak
TTITLE12=Times
TTITLE13=Mistreated
EXTD=
EXTT0=
EXTT1=
EXTT2=
EXTT3=
EXTT4=
EXTT5=
EXTT6=
EXTT7=
EXTT8=
EXTT9=
EXTT10=
EXTT11=
EXTT12=
EXTT13=
PLAYORDER=
